<?xml version="1.0" encoding="UTF-8"?>
<svg xmlns="http://www.w3.org/2000/svg" xmlns:xlink="http://www.w3.org/1999/xlink" width="8px" height="16px" viewBox="0 0 8 16" version="1.1"><title>Group 3</title><defs><polygon id="path-1" points="0 0 8 0 8 16 0 16"/></defs><g id="Page-1" stroke="none" stroke-width="1" fill="none" fill-rule="evenodd"><g id="Home-page" transform="translate(-983.000000, -67.000000)"><g id="Group-16" transform="translate(983.000000, 61.000000)"><g id="Group-3" transform="translate(0.000000, 6.000000)"><mask id="mask-2" fill="white"><use xlink:href="#path-1"/></mask><g id="Clip-2"/><path d="M5.19277962,15.9997645 L5.19277962,8.70130826 L7.55136161,8.70130826 L7.90455949,5.85722485 L5.19277962,5.85722485 L5.19277962,4.04114609 C5.19277962,3.21775345 5.41290487,2.65642429 6.55002975,2.65642429 L8,2.65571792 L8,0.111842008 C7.74927031,0.07722985 6.88849216,0 5.8871603,0 C3.79631047,0 2.36470288,1.32538666 2.36470288,3.75977514 L2.36470288,5.85722485 L0,5.85722485 L0,8.70154371 L2.36470288,8.70154371 L2.36470288,16 L5.19277962,15.9997645 Z" id="Fill-1" fill="#6C933E" mask="url(#mask-2)"/></g></g></g></g></svg>