<?xml version="1.0" encoding="UTF-8"?>
<svg xmlns="http://www.w3.org/2000/svg" xmlns:xlink="http://www.w3.org/1999/xlink" width="19px" height="17px" viewBox="0 0 19 17" version="1.1"><title>Group 6</title><defs><polygon id="path-1" points="0.000134933685 0.170078073 18.8976452 0.170078073 18.8976452 15.4903821 0.000134933685 15.4903821"/></defs><g id="Page-1" stroke="none" stroke-width="1" fill="none" fill-rule="evenodd"><g id="Home-page" transform="translate(-1099.000000, -67.000000)"><g id="Group-16" transform="translate(983.000000, 61.000000)"><g id="Group-2" transform="translate(0.000000, 6.000000)"><g id="Group-6" transform="translate(116.000000, 0.000000)"><g id="Group-3" transform="translate(0.000000, 0.384524)"><mask id="mask-2" fill="white"><use xlink:href="#path-1"/></mask><g id="Clip-2"/><path d="M9.44955806,14.1167962 C9.44986452,14.1085768 9.44986452,14.1003574 9.45017097,14.092138 C9.71525161,14.092138 9.98063871,14.0956154 10.2460258,14.0911896 C10.5135581,14.0867638 10.7810903,14.0779063 11.0483161,14.0658992 C11.4323,14.048512 11.8165903,14.0298603 12.2002677,14.0052022 C12.5073323,13.9862344 12.8140903,13.9603117 13.1208484,13.9328084 C13.3782677,13.910047 13.6353806,13.8831759 13.8921871,13.8544081 C14.2292839,13.8171047 14.5663806,13.7798013 14.9028645,13.7364915 C15.2145258,13.6963429 15.5249613,13.6432331 15.8372355,13.6059297 C16.473429,13.5294262 16.9904129,13.0931664 17.1470097,12.4545833 C17.2285258,12.121382 17.2720419,11.7771162 17.3152516,11.4353794 C17.3716387,10.9896358 17.4191387,10.5426276 17.4540742,10.094671 C17.4908484,9.62553375 17.5144452,9.15513194 17.5322194,8.68504626 C17.5604129,7.91716589 17.5530581,7.1489694 17.506171,6.38235355 C17.4733806,5.84809343 17.4359935,5.31351718 17.3793,4.78146998 C17.3290419,4.31233269 17.2600903,3.84477606 17.1804129,3.37974847 C17.0838806,2.81830115 16.7783484,2.41428669 16.2678,2.18193096 C16.052671,2.08393059 15.8209935,2.06401438 15.5923806,2.03303362 C15.1495581,1.97296887 14.7061226,1.9148009 14.2620742,1.86263941 C13.8759452,1.81711666 13.4895097,1.77601973 13.1021548,1.74219379 C12.7013161,1.70710333 12.300171,1.67485805 11.8984129,1.6555741 C11.2223806,1.62301269 10.5460419,1.58981901 9.86970323,1.5803351 C9.2289129,1.57148346 8.58781613,1.58855449 7.94733226,1.60372874 C7.57897742,1.61258039 7.21031613,1.63629016 6.84257419,1.66189671 C6.40986452,1.69192908 5.97776774,1.72860019 5.54567097,1.76811647 C5.17455806,1.80225854 4.80313871,1.83924577 4.43294516,1.88508466 C3.96713871,1.94262037 3.50286452,2.01216902 3.03736452,2.07381442 C2.37634839,2.1613825 1.85783226,2.63873917 1.72973548,3.31272885 C1.64821935,3.7417176 1.58938065,4.17608056 1.53912258,4.61012739 C1.48334839,5.09096149 1.44044516,5.57369238 1.40826774,6.05642326 C1.37946129,6.48446362 1.36904194,6.91376849 1.35831613,7.34275724 C1.33655806,8.1827153 1.36413871,9.02235724 1.42297742,9.86010239 C1.45147742,10.2691749 1.49070323,10.6776152 1.54065484,11.0844748 C1.59367097,11.5159926 1.65159032,11.9481427 1.73157419,12.3749185 C1.85047742,13.0065467 2.35459032,13.4943357 2.96963871,13.589807 C3.41154194,13.6584073 3.85467097,13.7181559 4.29810645,13.7718981 C4.79762258,13.8325951 5.29805806,13.8894985 5.7994129,13.9340729 C6.32988065,13.980544 6.86157419,14.0197442 7.39357419,14.0450346 C8.07849355,14.0779063 8.76433226,14.0937187 9.44955806,14.1167962 M9.45078387,0.170078073 C10.1032194,0.189045887 10.7556548,0.197581404 11.4068645,0.229826689 C12.0372355,0.260807453 12.6676065,0.309491511 13.2967516,0.363549784 C13.8339613,0.41002093 14.3702516,0.468505025 14.9053161,0.533943986 C15.3466065,0.587686128 15.7878968,0.648067005 16.2255097,0.725202786 C16.8074613,0.827945116 17.3036065,1.11151395 17.7176226,1.54366399 C18.1684129,2.01374967 18.4341065,2.58088733 18.5306387,3.23243177 C18.5949935,3.66742699 18.6621065,4.10210608 18.7145097,4.53868195 C18.7583323,4.9019156 18.7856065,5.26704604 18.8153323,5.63217647 C18.8848968,6.49015396 18.9088,7.35066049 18.893171,8.21148315 C18.8833645,8.75396266 18.8625258,9.29675829 18.8278968,9.83797327 C18.7954129,10.3440978 18.750671,10.8502223 18.6884613,11.3535017 C18.629929,11.8286454 18.5781387,12.3091634 18.4601548,12.7703974 C18.180671,13.8607307 17.4982032,14.5764495 16.4470742,14.8982701 C16.2080419,14.9712962 15.9546065,14.9962705 15.7060742,15.0342061 C15.4152516,15.0787805 15.1232032,15.1148193 14.8311548,15.1508582 C14.5210258,15.18911 14.2108968,15.2260972 13.9001548,15.2573941 C13.5158645,15.2962781 13.1306548,15.3316847 12.7454452,15.36393 C12.4656548,15.3876398 12.1852516,15.410085 11.9045419,15.4224141 C11.2757032,15.4499174 10.6462516,15.487853 10.0171065,15.490066 C9.17834839,15.4929111 8.33959032,15.4767885 7.50144516,15.4473884 C6.93328387,15.4274722 6.36573548,15.378472 5.7994129,15.3294718 C5.26005806,15.2826845 4.72131613,15.2257811 4.18349355,15.1609744 C3.68213871,15.1002774 3.17833226,15.045903 2.6828,14.9497994 C1.73433226,14.7648632 1.05339677,14.2012029 0.621606452,13.3141415 C0.466848387,12.9957983 0.390848387,12.6531131 0.341203226,12.3037892 C0.286348387,11.9190587 0.227816129,11.5343282 0.183380645,11.148017 C0.141396774,10.7847834 0.112283871,10.4196529 0.0831709677,10.0545225 C0.0129935484,9.19401596 -0.0121354839,8.33129652 0.00563870968,7.46826094 C0.0182032258,6.85623279 0.0430258065,6.2438885 0.0850096774,5.63375712 C0.122703226,5.08843245 0.182767742,4.54437229 0.249574194,4.00220892 C0.301977419,3.57827826 0.342122581,3.148025 0.477574194,2.74116537 C0.835509677,1.66569027 1.5529129,0.9866425 2.62978387,0.732473781 C2.93960645,0.659447694 3.25954194,0.630047581 3.5751871,0.587369998 C3.9361871,0.53836981 4.29749355,0.494111575 4.6588,0.453014643 C4.96034839,0.418872577 5.26220323,0.390420855 5.56436452,0.363865914 C5.93854194,0.330988368 6.31271935,0.300639864 6.68689677,0.273452663 C6.95596129,0.254168718 7.22533226,0.236781555 7.49500968,0.227613778 C8.14683226,0.205800791 8.79865484,0.189045887 9.45078387,0.170078073" id="Fill-1" fill="#6C933E" mask="url(#mask-2)"/></g><path d="M7.125,4.57156085 C9.30149004,5.66776731 11.4714539,6.7609852 13.65625,7.86137566 C11.4732338,8.9611684 9.30237998,10.0546852 7.125,11.1511905 L7.125,4.57156085 Z" id="Fill-4" fill="#6C933E"/></g></g></g></g></g></svg>