<?xml version="1.0" encoding="UTF-8"?>
<svg xmlns="http://www.w3.org/2000/svg" xmlns:xlink="http://www.w3.org/1999/xlink" width="16px" height="16px" viewBox="0 0 16 16" version="1.1"><title>Group 3</title><defs><polygon id="path-1" points="0 0 16 0 16 16 0 16"/></defs><g id="Page-1" stroke="none" stroke-width="1" fill="none" fill-rule="evenodd"><g id="Home-page" transform="translate(-1007.000000, -67.000000)"><g id="Group-16" transform="translate(983.000000, 61.000000)"><g id="Group-2" transform="translate(0.000000, 6.000000)"><g id="Group-3" transform="translate(24.000000, 0.000000)"><mask id="mask-2" fill="white"><use xlink:href="#path-1"/></mask><g id="Clip-2"/><path d="M4.70190275,0.0485094807 C3.85020568,0.0870548518 3.26859728,0.222356971 2.76014881,0.420065881 C2.23386925,0.624067913 1.78809184,0.898080926 1.34283888,1.34279487 C0.898372585,1.7872466 0.624350591,2.2332716 0.42007965,2.75979613 C0.222364259,3.26849014 0.0873199272,3.85007948 0.0485110707,4.70174864 C0.00917777013,5.55472885 0,5.8274308 0,8.00013111 C0,10.1725692 0.00917777013,10.4452711 0.0485110707,11.2982514 C0.0873199272,12.1499205 0.222364259,12.7315099 0.42007965,13.2399417 C0.624350591,13.766204 0.897585919,14.2124912 1.34283888,14.6572051 C1.7875674,15.1019191 2.23334481,15.3751454 2.76014881,15.5799341 C3.26938394,15.7779052 3.85020568,15.9126829 4.70190275,15.9514905 C5.55569759,15.9902981 5.82762181,16 8.00039333,16 C10.1734271,16 10.4456135,15.9908225 11.2986217,15.9514905 C12.1503188,15.9126829 12.7319272,15.7779052 13.2406379,15.5799341 C13.7666552,15.3751454 14.2124326,15.1019191 14.6576856,14.6572051 C15.1024141,14.2124912 15.3756494,13.766204 15.5804448,13.2399417 C15.7781602,12.7315099 15.9139912,12.1499205 15.9520134,11.2982514 C15.9908222,10.4444845 16,10.1725692 16,8.00013111 C16,5.8274308 15.9908222,5.55472885 15.9520134,4.70174864 C15.9132045,3.85007948 15.7781602,3.26849014 15.5804448,2.75979613 C15.3756494,2.23379603 15.1024141,1.78803324 14.6576856,1.34279487 C14.212957,0.898080926 13.7666552,0.624067913 13.2411623,0.420065881 C12.7319272,0.222356971 12.1503188,0.0865304249 11.2994084,0.0485094807 C10.446138,0.00970189613 10.1734271,0 8.00091778,0 C5.82762181,0 5.55569759,0.00917746931 4.70190275,0.0485094807 M4.76772047,14.5119389 C3.98787223,14.4762779 3.56385925,14.3464822 3.28223282,14.2366148 C2.90882869,14.0910864 2.64241113,13.9180255 2.36209581,13.6382438 C2.08204271,13.3581999 1.90845174,13.0923155 1.76344297,12.7186614 C1.65357196,12.4370442 1.52377206,12.0127829 1.48837209,11.2329602 C1.44956324,10.3896819 1.44169658,10.1363837 1.44169658,8.00013111 C1.44169658,5.86361625 1.45008768,5.61084252 1.48837209,4.76703977 C1.52377206,3.9872171 1.65435862,3.56374244 1.76344297,3.2813386 C1.90897619,2.90794671 2.08204271,2.6418001 2.36209581,2.36123175 C2.64188669,2.08145004 2.90804202,1.90760255 3.28223282,1.76286075 C3.56385925,1.65299333 3.98787223,1.52319769 4.76772047,1.48753667 C5.61128866,1.44872908 5.86459511,1.4411249 8.00039333,1.4411249 C10.136716,1.4411249 10.3892358,1.44951572 11.2333284,1.48753667 C12.0134389,1.52319769 12.4366652,1.65377997 12.7190783,1.76286075 C13.0924824,1.90760255 13.3589,2.08145004 13.6392153,2.36123175 C13.9190062,2.64101345 14.0923349,2.90794671 14.2376059,3.2813386 C14.3474769,3.56321801 14.477539,3.9872171 14.512939,4.76703977 C14.5517479,5.61084252 14.5593523,5.86361625 14.5593523,8.00013111 C14.5593523,10.1355971 14.5517479,10.3891575 14.512939,11.2329602 C14.477539,12.0127829 14.3469525,12.4370442 14.2376059,12.7186614 C14.0923349,13.0923155 13.9190062,13.3581999 13.6392153,13.6382438 C13.3594244,13.9180255 13.0924824,14.0910864 12.7190783,14.2366148 C12.4374519,14.3464822 12.0134389,14.4762779 11.2333284,14.5119389 C10.3900225,14.5504843 10.136716,14.5580885 8.00039333,14.5580885 C5.86459511,14.5580885 5.61128866,14.5504843 4.76772047,14.5119389 M11.3109461,3.7291991 C11.3109461,4.2591324 11.740728,4.68942461 12.2712031,4.68942461 C12.8011538,4.68942461 13.2314601,4.2591324 13.2314601,3.7291991 C13.2314601,3.1992658 12.8016782,2.76949803 12.2712031,2.76949803 C11.740728,2.76949803 11.3109461,3.1992658 11.3109461,3.7291991 M3.8921612,8.00013111 C3.8921612,10.2688015 5.73138633,12.1079664 8.00039333,12.1079664 C10.2691381,12.1079664 12.1083632,10.2688015 12.1083632,8.00013111 C12.1083632,5.73119848 10.2691381,3.89203363 8.00039333,3.89203363 C5.73138633,3.89203363 3.8921612,5.73119848 3.8921612,8.00013111 M5.33412,8.00013111 C5.33412,6.52727839 6.52749234,5.33315852 8.00039333,5.33315852 C9.47303211,5.33315852 10.6671911,6.52727839 10.6671911,8.00013111 C10.6671911,9.47272161 9.47303211,10.6668415 8.00039333,10.6668415 C6.52749234,10.6668415 5.33412,9.47272161 5.33412,8.00013111" id="Fill-1" fill="#6C933E" mask="url(#mask-2)"/></g></g></g></g></g></svg>