<?xml version="1.0" encoding="UTF-8"?>
<svg xmlns="http://www.w3.org/2000/svg" xmlns:xlink="http://www.w3.org/1999/xlink" width="13px" height="16px" viewBox="0 0 13 16" version="1.1"><title>Group 3</title><defs><polygon id="path-1" points="0 0 13 0 13 16 0 16"/></defs><g id="Page-1" stroke="none" stroke-width="1" fill="none" fill-rule="evenodd"><g id="Home-page" transform="translate(-1037.000000, -68.000000)"><g id="Group-16" transform="translate(983.000000, 61.000000)"><g id="Group-2" transform="translate(0.000000, 6.000000)"><g id="Group-3" transform="translate(54.000000, 1.000000)"><mask id="mask-2" fill="white"><use xlink:href="#path-1"/></mask><g id="Clip-2"/><path d="M5.34357346,10.5820257 C4.90457142,12.7850064 4.36950657,14.8967225 2.78148389,16 C2.29221064,12.6701512 3.50145719,10.1700242 4.06339971,7.51548608 C3.1055092,5.97256557 4.17837643,2.86575513 6.198184,3.63137731 C8.68312469,4.57261839 4.04548126,9.36937358 7.15906092,9.96938498 C10.4097665,10.5944167 11.7364784,4.56856748 9.72115049,2.6093563 C6.8091534,-0.220324171 1.24348354,2.54454172 1.92811768,6.59592929 C2.09460995,7.5857813 3.1627487,7.88650187 2.35492522,9.25380347 C0.49065975,8.85776735 -0.0648122185,7.44995664 0.00586611447,5.5734317 C0.121838309,2.50236459 2.88849686,0.351569145 5.6643635,0.0539463319 C9.17463774,-0.32278839 12.469144,1.28756787 12.9235758,4.44918475 C13.4359937,8.01779904 11.3400327,11.8826064 7.58586846,11.6045233 C6.56824978,11.5287474 6.14169111,11.0459742 5.34357346,10.5820257" id="Fill-1" fill="#6C933E" mask="url(#mask-2)"/></g></g></g></g></g></svg>